<svg width="46" height="46" viewBox="0 0 46 46" fill="none" xmlns="http://www.w3.org/2000/svg">
<circle cx="23" cy="23" r="23" fill="#C9DF22"/>
<path d="M19 41.5642L12 36.5642V17.0642V16.5642M19 41.5642L32 35.0642L32.5 14.0642M19 41.5642V21.0642M32.5 14.0642L19 21.0642M32.5 14.0642L25.5 9.5642L12 16.5642M19 21.0642L12 16.5642M19 21.0642L15 26.0642L12 16.5642M24 13.5642H25.75M27.5 13.5642H26.625M25.75 13.5642C26 10.8975 26.9 5.4642 28.5 5.0642C30.1 4.6642 33.1667 6.23087 34.5 7.0642L34 8.56421C32.3333 7.56421 29 5.66421 29 6.06421C29 6.56421 25.75 13.0642 26.625 13.5642M25.75 13.5642H26.625" stroke="black"/>
</svg>
