<svg width="24" height="38" viewBox="0 0 24 38" fill="none" xmlns="http://www.w3.org/2000/svg">
<path d="M7.5 37.0642L0.5 32.0642V12.5642V12.0642M7.5 37.0642L20.5 30.5642L21 9.5642M7.5 37.0642V16.5642M21 9.5642L7.5 16.5642M21 9.5642L14 5.0642L0.5 12.0642M7.5 16.5642L0.5 12.0642M7.5 16.5642L3.5 21.5642L0.5 12.0642M12.5 9.0642H14.25M16 9.0642H15.125M14.25 9.0642C14.5 6.39754 15.4 0.964204 17 0.564204C18.6 0.164204 21.6667 1.73087 23 2.5642L22.5 4.06421C20.8333 3.06421 17.5 1.16421 17.5 1.56421C17.5 2.06421 14.25 8.5642 15.125 9.0642M14.25 9.0642H15.125" stroke="black"/>
</svg>
