<svg width="74" height="25" viewBox="0 0 74 25" fill="none" xmlns="http://www.w3.org/2000/svg">
<path d="M7.07997 20.688C5.63997 20.688 4.45597 20.584 3.52797 20.376C2.59997 20.184 1.87997 19.912 1.36797 19.56C0.855973 19.208 0.495973 18.808 0.287973 18.36C0.0959732 17.896 -2.68519e-05 17.408 -2.68519e-05 16.896C-2.68519e-05 16.416 0.0719732 15.936 0.215973 15.456C0.375973 14.976 0.647973 14.48 1.03197 13.968C1.25597 14.432 1.62397 14.88 2.13597 15.312C2.64797 15.744 3.22397 16.096 3.86397 16.368C4.51997 16.64 5.15997 16.776 5.78397 16.776C6.61597 16.776 7.30397 16.648 7.84797 16.392C8.40797 16.12 8.80797 15.704 9.04797 15.144C6.32797 14.776 4.28797 14.024 2.92797 12.888C1.56797 11.736 0.887973 10.384 0.887973 8.83201C0.887973 7.92001 1.07197 7.12001 1.43997 6.43201C1.82397 5.74401 2.32797 5.16801 2.95197 4.70401C3.57597 4.22401 4.25597 3.84001 4.99197 3.55201C5.72797 3.24801 6.45597 3.03201 7.17597 2.90401C7.89597 2.76001 8.53597 2.68801 9.09597 2.68801C11.128 2.68801 12.688 2.92801 13.776 3.40801C14.88 3.87201 15.432 4.69601 15.432 5.88001C15.432 6.56801 15.272 7.14401 14.952 7.60801C14.648 8.07201 14.24 8.42401 13.728 8.66401C13.232 8.88801 12.688 9.00001 12.096 9.00001C11.392 9.00001 10.704 8.80001 10.032 8.40001C9.35997 7.98401 8.88797 7.40801 8.61597 6.67201C8.05597 6.67201 7.50397 6.86401 6.95997 7.24801C6.41597 7.61601 6.06397 8.12801 5.90397 8.78401C8.03197 9.29601 9.74397 9.86401 11.04 10.488C12.352 11.112 13.304 11.816 13.896 12.6C14.488 13.384 14.784 14.28 14.784 15.288C14.784 16.456 14.44 17.44 13.752 18.24C13.064 19.04 12.136 19.648 10.968 20.064C9.81597 20.48 8.51997 20.688 7.07997 20.688ZM21.5154 4.12801C20.7794 4.12801 20.1714 3.96801 19.6914 3.64801C19.2114 3.32801 18.9714 2.89601 18.9714 2.35201C18.9714 1.82401 19.1474 1.39201 19.4994 1.05601C19.8514 0.704011 20.2754 0.440012 20.7714 0.264012C21.2834 0.0880122 21.7634 1.23978e-05 22.2114 1.23978e-05C22.9474 1.23978e-05 23.5554 0.160012 24.0354 0.480012C24.5154 0.784012 24.7554 1.21601 24.7554 1.77601C24.7554 2.24001 24.6034 2.65601 24.2994 3.02401C23.9954 3.37601 23.5954 3.64801 23.0994 3.84001C22.6194 4.03201 22.0914 4.12801 21.5154 4.12801ZM20.0754 20.688C19.0514 20.688 18.3234 20.432 17.8914 19.92C17.4594 19.408 17.2434 18.672 17.2434 17.712C17.2434 17.36 17.2914 16.872 17.3874 16.248C17.4834 15.608 17.6114 14.904 17.7714 14.136C17.9314 13.352 18.0994 12.56 18.2754 11.76C18.4514 10.96 18.6194 10.208 18.7794 9.50401L17.4354 7.48801C18.2834 6.97601 19.0914 6.55201 19.8594 6.21601C20.6274 5.86401 21.3954 5.68801 22.1634 5.68801C22.8354 5.68801 23.2994 5.83201 23.5554 6.12001C23.8274 6.40801 23.9634 6.85601 23.9634 7.46401C23.9634 7.70401 23.8994 8.09601 23.7714 8.64001C23.6594 9.18401 23.5154 9.82401 23.3394 10.56C23.1634 11.296 22.9874 12.072 22.8114 12.888C22.6354 13.688 22.4834 14.48 22.3554 15.264C22.2434 16.032 22.1874 16.72 22.1874 17.328C22.1874 17.808 22.2434 18.24 22.3554 18.624C22.4834 18.992 22.6754 19.288 22.9314 19.512C22.0354 20.296 21.0834 20.688 20.0754 20.688ZM28.9481 24.864C27.9241 24.864 27.2281 24.608 26.8601 24.096C26.4921 23.584 26.3081 22.848 26.3081 21.888C26.3081 21.536 26.3481 20.992 26.4281 20.256C26.5081 19.52 26.6041 18.68 26.7161 17.736C26.8441 16.776 26.9881 15.784 27.1481 14.76C27.3081 13.736 27.4601 12.752 27.6041 11.808C27.7641 10.864 27.9081 10.04 28.0361 9.33601L26.6921 7.41601C27.5401 6.92001 28.3401 6.50401 29.0921 6.16801C29.8601 5.83201 30.6281 5.66401 31.3961 5.66401C32.0681 5.66401 32.5241 5.89601 32.7641 6.36001C33.0041 6.80801 33.1241 7.33601 33.1241 7.94401C33.1241 8.12001 33.1161 8.32001 33.1001 8.54401C33.0841 8.75201 33.0601 8.97601 33.0281 9.21601L33.2681 9.33601C33.7321 8.18401 34.4041 7.28801 35.2841 6.64801C36.1641 5.99201 37.1721 5.66401 38.3081 5.66401C39.1721 5.66401 39.9001 5.92801 40.4921 6.45601C41.0841 6.96801 41.5321 7.64801 41.8361 8.49601C42.1401 9.34401 42.2921 10.28 42.2921 11.304C42.2921 12.296 42.1001 13.312 41.7161 14.352C41.3481 15.376 40.7801 16.32 40.0121 17.184C39.2441 18.048 38.2761 18.744 37.1081 19.272C35.9401 19.8 34.5561 20.064 32.9561 20.064C32.6521 20.064 32.3561 20.056 32.0681 20.04C31.7801 20.008 31.4681 19.976 31.1321 19.944C31.0841 20.488 31.0601 21.008 31.0601 21.504C31.0601 21.984 31.1161 22.408 31.2281 22.776C31.3561 23.16 31.5481 23.464 31.8041 23.688C30.9081 24.472 29.9561 24.864 28.9481 24.864ZM31.5641 17.712C32.6041 17.68 33.5161 17.488 34.3001 17.136C35.1001 16.768 35.7721 16.296 36.3161 15.72C36.8601 15.128 37.2681 14.488 37.5401 13.8C37.8121 13.112 37.9481 12.44 37.9481 11.784C37.9481 11.048 37.8041 10.448 37.5161 9.98401C37.2281 9.52001 36.7961 9.28801 36.2201 9.28801C35.6281 9.28801 35.0681 9.47201 34.5401 9.84001C34.0281 10.192 33.5641 10.776 33.1481 11.592C32.7481 12.408 32.4041 13.52 32.1161 14.928L31.5641 17.712ZM47.3231 24.864C46.2991 24.864 45.6031 24.608 45.2351 24.096C44.8671 23.584 44.6831 22.848 44.6831 21.888C44.6831 21.536 44.7231 20.992 44.8031 20.256C44.8831 19.52 44.9791 18.68 45.0911 17.736C45.2191 16.776 45.3631 15.784 45.5231 14.76C45.6831 13.736 45.8351 12.752 45.9791 11.808C46.1391 10.864 46.2831 10.04 46.4111 9.33601L45.0671 7.41601C45.9151 6.92001 46.7151 6.50401 47.4671 6.16801C48.2351 5.83201 49.0031 5.66401 49.7711 5.66401C50.4431 5.66401 50.8991 5.89601 51.1391 6.36001C51.3791 6.80801 51.4991 7.33601 51.4991 7.94401C51.4991 8.12001 51.4911 8.32001 51.4751 8.54401C51.4591 8.75201 51.4351 8.97601 51.4031 9.21601L51.6431 9.33601C52.1071 8.18401 52.7791 7.28801 53.6591 6.64801C54.5391 5.99201 55.5471 5.66401 56.6831 5.66401C57.5471 5.66401 58.2751 5.92801 58.8671 6.45601C59.4591 6.96801 59.9071 7.64801 60.2111 8.49601C60.5151 9.34401 60.6671 10.28 60.6671 11.304C60.6671 12.296 60.4751 13.312 60.0911 14.352C59.7231 15.376 59.1551 16.32 58.3871 17.184C57.6191 18.048 56.6511 18.744 55.4831 19.272C54.3151 19.8 52.9311 20.064 51.3311 20.064C51.0271 20.064 50.7311 20.056 50.4431 20.04C50.1551 20.008 49.8431 19.976 49.5071 19.944C49.4591 20.488 49.4351 21.008 49.4351 21.504C49.4351 21.984 49.4911 22.408 49.6031 22.776C49.7311 23.16 49.9231 23.464 50.1791 23.688C49.2831 24.472 48.3311 24.864 47.3231 24.864ZM49.9391 17.712C50.9791 17.68 51.8911 17.488 52.6751 17.136C53.4751 16.768 54.1471 16.296 54.6911 15.72C55.2351 15.128 55.6431 14.488 55.9151 13.8C56.1871 13.112 56.3231 12.44 56.3231 11.784C56.3231 11.048 56.1791 10.448 55.8911 9.98401C55.6031 9.52001 55.1711 9.28801 54.5951 9.28801C54.0031 9.28801 53.4431 9.47201 52.9151 9.84001C52.4031 10.192 51.9391 10.776 51.5231 11.592C51.1231 12.408 50.7791 13.52 50.4911 14.928L49.9391 17.712ZM69.326 20.923C68.9744 20.923 68.6131 20.8693 68.242 20.7618C67.8807 20.6544 67.5486 20.4689 67.2459 20.2052C66.9529 19.9415 66.7088 19.5948 66.5135 19.1652C66.3279 18.7257 66.2352 18.174 66.2352 17.5099C66.2352 16.5431 66.3621 15.5226 66.616 14.4484C66.8797 13.3644 67.2557 12.173 67.744 10.8741H65.4588H65.1219C65.1121 11.1671 65.0926 11.5382 65.0633 11.9874C65.0438 12.4366 65.0047 12.9152 64.9461 13.423C64.8875 13.9308 64.8094 14.4435 64.7117 14.9611C64.6238 15.4786 64.5115 15.9572 64.3748 16.3966C64.2772 16.7091 64.1209 16.8898 63.9061 16.9386C63.701 16.9874 63.4959 16.9532 63.2908 16.8361C63.0858 16.7091 62.9197 16.5284 62.7928 16.2941C62.6658 16.0597 62.6365 15.8156 62.7049 15.5616C62.783 15.2589 62.8514 14.8927 62.91 14.463C62.9686 14.0236 63.0125 13.5646 63.0418 13.0861C63.0809 12.5978 63.1102 12.1144 63.1297 11.6359C63.1492 11.1476 63.1639 10.713 63.1736 10.3322C62.8026 10.1271 62.4949 9.86829 62.2508 9.55579C62.0067 9.23352 61.8846 8.85266 61.8846 8.41321C61.8846 8.20813 61.9236 8.02258 62.0018 7.85657C62.0897 7.68079 62.202 7.5343 62.3387 7.41711C62.4754 7.29016 62.6365 7.19739 62.8221 7.13879C63.0076 7.07043 63.1981 7.03625 63.3934 7.03625C63.5692 7.03625 63.7498 7.06067 63.9354 7.1095C64.1307 7.15833 64.3113 7.24622 64.4774 7.37317C64.6531 7.50012 64.8094 7.66614 64.9461 7.87122C65.0828 8.07629 65.1951 8.3302 65.283 8.63293C65.5272 8.66223 65.7322 8.68665 65.8983 8.70618C66.074 8.71594 66.2205 8.72571 66.3377 8.73547C66.4549 8.74524 66.5526 8.75012 66.6307 8.75012C66.7088 8.75012 66.7869 8.75012 66.8651 8.75012H68.4324C68.5203 8.75012 68.6473 8.80383 68.8133 8.91125C68.9891 9.01868 69.16 9.16028 69.326 9.33606C69.492 9.50208 69.6287 9.68274 69.7361 9.87805C69.8533 10.0734 69.8973 10.2589 69.868 10.4347C69.868 10.4933 69.8338 10.6349 69.7654 10.8595C69.6971 11.0841 69.6141 11.3673 69.5164 11.7091C69.4188 12.0509 69.3113 12.4464 69.1942 12.8956C69.077 13.3351 68.9695 13.799 68.8719 14.2872C68.7742 14.7755 68.6912 15.2833 68.6229 15.8107C68.5545 16.3282 68.5203 16.8361 68.5203 17.3341C68.5203 17.5392 68.5447 17.7394 68.5936 17.9347C68.6424 18.13 68.7156 18.3058 68.8133 18.462C68.9109 18.6085 69.033 18.7257 69.1795 18.8136C69.3358 18.9015 69.5164 18.9454 69.7215 18.9454C70.0633 18.9454 70.3563 18.838 70.6004 18.6232C70.8445 18.4083 71.0496 18.1398 71.2156 17.8175C71.3817 17.4952 71.5135 17.1486 71.6111 16.7775C71.7186 16.3966 71.8065 16.0402 71.8748 15.7081C71.9334 15.3956 72.0311 15.171 72.1678 15.0343C72.3045 14.8878 72.4461 14.8146 72.5926 14.8146C72.7098 14.8146 72.8318 14.8536 72.9588 14.9318C73.0858 15.0001 73.1981 15.0929 73.2957 15.2101C73.4031 15.3273 73.4861 15.4591 73.5447 15.6056C73.6131 15.7521 73.6473 15.8986 73.6473 16.045C73.6473 16.0939 73.6424 16.1329 73.6326 16.1622C73.6229 16.1915 73.618 16.2208 73.618 16.2501C73.4813 16.7482 73.3006 17.2706 73.076 17.8175C72.8611 18.3644 72.5828 18.8673 72.241 19.3263C71.8992 19.7853 71.4891 20.1661 71.0106 20.4689C70.532 20.7716 69.9705 20.923 69.326 20.923Z" fill="black"/>
</svg>
